<svg width="19" height="19" viewBox="0 0 19 19" fill="none" xmlns="http://www.w3.org/2000/svg">
<path d="M1.5 8.90754C1.5 8.33081 1.74896 7.78216 2.18299 7.40238L8.18299 2.15238C8.93704 1.49259 10.063 1.49259 10.817 2.15238L16.817 7.40238C17.251 7.78216 17.5 8.33081 17.5 8.90754V16C17.5 17.1046 16.6046 18 15.5 18H13.5C12.3954 18 11.5 17.1046 11.5 16V14C11.5 12.8954 10.6046 12 9.5 12V12C8.39543 12 7.5 12.8954 7.5 14V16C7.5 17.1046 6.60457 18 5.5 18H3.5C2.39543 18 1.5 17.1046 1.5 16V8.90754Z" stroke="#212122" stroke-width="2" stroke-linejoin="round"/>
</svg>
