
<svg version="1.0" xmlns="http://www.w3.org/2000/svg"
 width="42.000000pt" height="45.000000pt" viewBox="0 0 42.000000 45.000000"
 preserveAspectRatio="xMidYMid meet">
<metadata>
Created by potrace 1.16, written by Peter Selinger 2001-2019
</metadata>
<g transform="translate(0.000000,45.000000) scale(0.100000,-0.100000)"
fill="#C60033" stroke="none">
<path d="M133 427 c-15 -13 -43 -29 -61 -37 -61 -24 -71 -48 -71 -167 0 -103
1 -107 29 -134 16 -16 35 -29 43 -29 8 0 31 -13 52 -30 53 -42 117 -42 170 0
21 17 44 30 52 30 8 0 27 13 43 29 28 27 29 31 29 134 0 119 -10 143 -71 167
-18 8 -46 24 -61 37 -21 17 -41 23 -77 23 -36 0 -56 -6 -77 -23z m137 -37 c17
-18 38 -30 53 -30 52 0 88 -88 51 -124 -26 -27 -40 -20 -36 18 6 50 -35 91
-81 82 -18 -4 -39 -7 -47 -7 -8 0 -29 3 -47 7 -46 9 -87 -32 -81 -82 4 -38
-10 -45 -36 -18 -37 36 -1 124 51 124 15 0 36 12 53 30 20 21 37 30 60 30 23
0 40 -9 60 -30z m35 -120 c8 -24 -8 -55 -48 -97 -37 -40 -53 -41 -89 -7 l-27
27 40 46 c65 73 107 84 124 31z m-219 -90 c9 0 36 -18 60 -40 24 -22 53 -40
64 -40 11 0 40 18 64 40 24 22 51 40 60 40 10 0 26 5 37 10 17 9 19 7 19 -18
0 -39 -35 -82 -67 -82 -15 0 -36 -12 -53 -30 -20 -21 -37 -30 -60 -30 -23 0
-40 9 -60 30 -17 18 -38 30 -53 30 -32 0 -67 43 -67 82 0 25 2 27 19 18 11 -5
27 -10 37 -10z"/>
</g>
</svg>
